<?xml version="1.0" encoding="utf-8"?>
<!-- Generator: Adobe Illustrator 23.0.1, SVG Export Plug-In . SVG Version: 6.00 Build 0)  -->
<svg version="1.1" id="Capa_1" xmlns="http://www.w3.org/2000/svg" xmlns:xlink="http://www.w3.org/1999/xlink" x="0px" y="0px"
	 viewBox="0 0 69.64 50.86" style="enable-background:new 0 0 69.64 50.86;" xml:space="preserve">
<style type="text/css">
	.st0{fill:#FFFFFF;}
</style>
<g>
	<g>
		<polygon class="st0" points="29.27,12.7 32.96,6.52 9.11,6.52 5.37,12.7 14.24,12.7 6.09,26.38 13.54,26.38 21.26,12.7 		"/>
		<path class="st0" d="M29.83,13.75l-3.03,0.02l-7.32,12.61h6.89l3.14-5.17h5.89l0.04,5.17h7.05V6.52H34.2L29.83,13.75z M35.36,16.9
			h-3.24l3.2-5.26L35.36,16.9z"/>
		<path class="st0" d="M62.5,6.52H47.63l-3.81,9.26v10.6h3.53l1.68-5.17h9.24c4.54-1.12,7.1-5.03,7.5-9
			C66.16,8.23,62.5,6.52,62.5,6.52z M57.8,13.54c-0.2,2.1-2.45,3.01-2.45,3.01h-4.49l2-5.22h3.16
			C56.02,11.33,57.99,11.44,57.8,13.54z"/>
	</g>
	<g>
		<g>
			<g>
				<g>
					<g>
						<path class="st0" d="M22.6,44.55V29.5h3.73c3.73,0,5.69,1.61,5.69,4.74c0,0.52-0.06,1.08-0.16,1.68
							c-0.43,2.4-1.88,3.83-4.4,3.83l-0.69-0.03v4.83H22.6z M26.93,36.22c0.77,0,1.07-0.31,1.11-1.38c0-1-0.31-1.46-0.92-1.47
							l-0.35-0.03v2.88C26.82,36.22,26.88,36.22,26.93,36.22z"/>
						<path class="st0" d="M32.65,44.55V29.5h4.04v15.06H32.65z"/>
						<path class="st0" d="M37.6,40.87v-6.85h4.04v5.92v0.37c0,0.04,0,0.06,0,0.08c0.07,0.33,0.22,0.41,0.51,0.41
							c0.29-0.07,0.42-0.23,0.42-0.41v-6.38h4.04v10.54h-3.91v-0.72c-0.43,0.58-1.19,0.93-2.39,0.93c-1.72-0.02-2.62-1.02-2.68-2.71
							l-0.02-0.91V40.87z"/>
						<path class="st0" d="M53.77,34.39v3.85c-0.27-0.29-0.56-0.49-0.87-0.68c-0.51-0.34-0.87-0.46-1.09-0.46
							c-0.35,0-0.49,0.08-0.53,0.31c0,0.19,0.02,0.25,0.31,0.43l0.11,0.06l0.76,0.37c0.34,0.17,0.62,0.36,0.89,0.61
							c0.54,0.54,0.83,1.34,0.83,2.19c0,0.93-0.32,1.9-1.03,2.67c-0.62,0.64-1.49,1.02-2.67,1.02c-0.34,0-0.74-0.02-1.16-0.1
							c-0.62-0.12-1.23-0.33-1.83-0.62v-4.31c0.08,0.13,0.16,0.25,0.27,0.38c0.38,0.48,0.83,0.85,1.21,1.02
							c0.26,0.11,0.46,0.15,0.62,0.15c0.11,0,0.17-0.03,0.25-0.07c0.13-0.08,0.18-0.23,0.18-0.35c0-0.08-0.02-0.17-0.09-0.23
							c-0.07-0.06-0.14-0.13-0.26-0.16l-0.58-0.29L49,40.1c-1.15-0.5-1.79-1.39-1.79-2.59c0-0.45,0.09-0.89,0.23-1.38
							c0.45-1.49,1.66-2.42,3.57-2.42c0.27,0,0.56,0.02,0.85,0.06C52.52,33.84,53.17,34.05,53.77,34.39z"/>
					</g>
					<path class="st0" d="M20.37,40.24c0,0.96-0.78,1.74-1.73,1.74c-0.96,0-1.73-0.78-1.73-1.74c0-0.96,0.77-1.74,1.73-1.74
						C19.59,38.51,20.37,39.28,20.37,40.24z"/>
				</g>
			</g>
		</g>
	</g>
</g>
</svg>
