<?xml version="1.0" encoding="utf-8"?>
<!-- Generator: Adobe Illustrator 23.0.1, SVG Export Plug-In . SVG Version: 6.00 Build 0)  -->
<svg version="1.1" id="Capa_1" xmlns="http://www.w3.org/2000/svg" xmlns:xlink="http://www.w3.org/1999/xlink" x="0px" y="0px"
	 viewBox="0 0 108.79 50.86" style="enable-background:new 0 0 108.79 50.86;" xml:space="preserve">
<style type="text/css">
	.st0{fill:#FFFFFF;}
</style>
<g>
	<g>
		<polygon class="st0" points="27.21,22.06 30.91,15.88 7.05,15.88 3.31,22.06 12.19,22.06 4.03,35.74 11.48,35.74 19.2,22.06 		"/>
		<path class="st0" d="M27.77,23.11l-3.03,0.02l-7.32,12.61h6.89l3.14-5.17h5.89l0.04,5.17h7.05V15.88h-8.29L27.77,23.11z
			 M33.3,26.26h-3.24l3.2-5.26L33.3,26.26z"/>
		<path class="st0" d="M60.44,15.88H45.58l-3.81,9.26v10.6h3.53l1.68-5.17h9.24c4.54-1.12,7.1-5.03,7.5-9
			C64.1,17.59,60.44,15.88,60.44,15.88z M55.74,22.9c-0.2,2.1-2.45,3.01-2.45,3.01h-4.49l2-5.22h3.16
			C53.96,20.69,55.93,20.8,55.74,22.9z"/>
	</g>
	<g>
		<g>
			<g>
				<g>
					<g>
						<path class="st0" d="M72.27,35.86V20.8H76c3.73,0,5.69,1.61,5.69,4.74c0,0.52-0.06,1.08-0.16,1.68
							c-0.43,2.4-1.88,3.83-4.4,3.83l-0.69-0.03v4.83H72.27z M76.6,27.52c0.77,0,1.07-0.31,1.11-1.38c0-1-0.31-1.46-0.92-1.47
							l-0.35-0.03v2.88C76.49,27.52,76.55,27.52,76.6,27.52z"/>
						<path class="st0" d="M82.32,35.86V20.8h4.04v15.06H82.32z"/>
						<path class="st0" d="M87.27,32.17v-6.85h4.04v5.92v0.37c0,0.04,0,0.06,0,0.08c0.07,0.33,0.22,0.41,0.51,0.41
							c0.29-0.07,0.42-0.23,0.42-0.41v-6.38h4.04v10.54h-3.91v-0.72c-0.43,0.58-1.19,0.93-2.39,0.93c-1.72-0.02-2.62-1.02-2.68-2.71
							l-0.02-0.91V32.17z"/>
						<path class="st0" d="M103.44,25.69v3.85c-0.27-0.29-0.56-0.49-0.87-0.68c-0.51-0.34-0.87-0.46-1.09-0.46
							c-0.35,0-0.49,0.08-0.53,0.31c0,0.19,0.02,0.25,0.31,0.43l0.11,0.06l0.76,0.37c0.34,0.17,0.62,0.36,0.89,0.61
							c0.54,0.54,0.83,1.34,0.83,2.19c0,0.93-0.32,1.9-1.03,2.67c-0.62,0.64-1.49,1.02-2.67,1.02c-0.34,0-0.74-0.02-1.16-0.1
							c-0.62-0.12-1.23-0.33-1.83-0.62v-4.31c0.08,0.13,0.16,0.25,0.27,0.38c0.38,0.48,0.83,0.85,1.21,1.02
							c0.26,0.11,0.46,0.15,0.62,0.15c0.11,0,0.17-0.03,0.25-0.07c0.13-0.08,0.18-0.23,0.18-0.35c0-0.08-0.02-0.17-0.09-0.23
							c-0.07-0.06-0.14-0.13-0.26-0.16l-0.58-0.29l-0.11-0.06c-1.15-0.5-1.79-1.39-1.79-2.59c0-0.45,0.09-0.89,0.23-1.38
							c0.45-1.49,1.66-2.42,3.57-2.42c0.27,0,0.56,0.02,0.85,0.06C102.19,25.14,102.84,25.35,103.44,25.69z"/>
					</g>
					<path class="st0" d="M70.04,31.55c0,0.96-0.78,1.74-1.73,1.74c-0.96,0-1.73-0.78-1.73-1.74c0-0.96,0.77-1.74,1.73-1.74
						C69.26,29.81,70.04,30.58,70.04,31.55z"/>
				</g>
			</g>
		</g>
	</g>
</g>
</svg>
